<svg xmlns="http://www.w3.org/2000/svg" width="1200" height="675" viewBox="0 0 1200 675" role="img" aria-labelledby="title desc">
  <title id="title">Hefesto risk grid visual</title>
  <desc id="desc">A cold blue analytical risk grid with map-like cells, contour lines, and model signal traces.</desc>
  <defs>
    <linearGradient id="bg" x1="0" y1="0" x2="1" y2="1">
      <stop offset="0" stop-color="#f8fafc"/>
      <stop offset=".58" stop-color="#eaf6fb"/>
      <stop offset="1" stop-color="#dbeafe"/>
    </linearGradient>
    <linearGradient id="gridLine" x1="0" y1="0" x2="1" y2="1">
      <stop offset="0" stop-color="#0891b2" stop-opacity=".28"/>
      <stop offset="1" stop-color="#2563eb" stop-opacity=".16"/>
    </linearGradient>
    <radialGradient id="riskA" cx="52%" cy="44%" r="48%">
      <stop offset="0" stop-color="#0ea5e9" stop-opacity=".34"/>
      <stop offset=".56" stop-color="#22d3ee" stop-opacity=".13"/>
      <stop offset="1" stop-color="#22d3ee" stop-opacity="0"/>
    </radialGradient>
    <radialGradient id="riskB" cx="76%" cy="66%" r="36%">
      <stop offset="0" stop-color="#2563eb" stop-opacity=".26"/>
      <stop offset=".72" stop-color="#38bdf8" stop-opacity=".08"/>
      <stop offset="1" stop-color="#38bdf8" stop-opacity="0"/>
    </radialGradient>
    <filter id="soft" x="-20%" y="-20%" width="140%" height="140%">
      <feGaussianBlur stdDeviation="10"/>
    </filter>
  </defs>

  <rect width="1200" height="675" fill="url(#bg)"/>
  <rect width="1200" height="675" fill="url(#riskA)"/>
  <rect width="1200" height="675" fill="url(#riskB)"/>

  <g opacity=".5" stroke="url(#gridLine)" stroke-width="1">
    <path d="M0 95H1200M0 175H1200M0 255H1200M0 335H1200M0 415H1200M0 495H1200M0 575H1200"/>
    <path d="M90 0V675M180 0V675M270 0V675M360 0V675M450 0V675M540 0V675M630 0V675M720 0V675M810 0V675M900 0V675M990 0V675M1080 0V675"/>
  </g>

  <g transform="translate(305 112)" opacity=".92">
    <path d="M118 38c75-22 148 18 204 4 53-13 83-46 141-26 62 22 78 78 141 100 68 23 133-9 177 44 49 58 25 138-9 188-41 60-101 62-151 94-56 35-78 99-142 112-73 15-126-48-195-48-73 0-142 54-199 15-52-36-31-109-75-163-43-54-128-63-139-130-12-76 82-115 105-190 10-33 17-72 142-100Z" fill="#e0f2fe" stroke="#0891b2" stroke-opacity=".62" stroke-width="3"/>
    <path d="M204 122c43-18 83 13 129 7 58-8 92-51 147-28 44 19 48 71 92 91 46 21 99 2 126 40 28 41 4 91-22 119-34 36-78 28-114 54-43 32-48 84-95 91-53 8-86-42-136-40-53 2-102 44-139 16-34-26-17-78-47-111-32-36-87-38-96-84-10-50 52-75 69-121 8-22 18-47 86-34Z" fill="none" stroke="#0e7490" stroke-opacity=".46" stroke-width="2.5"/>
    <path d="M271 186c35-8 64 18 99 13 42-6 70-38 107-18 31 17 30 57 63 74 33 17 72 4 90 32 18 29 0 64-22 82-28 23-60 15-85 35-31 24-31 62-65 66-39 5-61-32-97-29-38 3-73 32-99 11-23-19-10-56-32-78-23-24-63-23-70-55-7-36 37-51 52-84 7-16 16-35 59-49Z" fill="none" stroke="#2563eb" stroke-opacity=".36" stroke-width="2"/>
    <path d="M330 250c27 8 52 4 76-12 37-24 74 13 96 48 19 31 69 18 77 56 6 31-29 40-53 55-27 16-37 53-70 54-31 1-48-27-76-25-34 3-65 25-84 4-19-21 4-50-10-75-16-29-54-39-45-70 8-28 54-22 89-35Z" fill="#38bdf8" fill-opacity=".1" stroke="#0284c7" stroke-opacity=".42" stroke-width="2"/>
  </g>

  <g opacity=".76">
    <rect x="96" y="86" width="264" height="94" rx="14" fill="#f8fafc" fill-opacity=".78" stroke="#94a3b8" stroke-opacity=".5"/>
    <text x="126" y="125" font-family="Inter, system-ui, sans-serif" font-size="18" font-weight="700" fill="#0f172a">HEFESTO</text>
    <text x="126" y="154" font-family="Inter, system-ui, sans-serif" font-size="13" font-weight="600" fill="#475569" letter-spacing="2">DAILY RISK MODEL</text>
  </g>

  <g opacity=".85" font-family="Inter, system-ui, sans-serif">
    <rect x="832" y="474" width="252" height="104" rx="14" fill="#0f172a" fill-opacity=".72"/>
    <text x="862" y="512" font-size="13" font-weight="700" fill="#bae6fd" letter-spacing="2">MODEL SIGNAL</text>
    <text x="862" y="552" font-size="42" font-weight="800" fill="#f8fafc">0.456</text>
    <text x="1008" y="552" font-size="14" font-weight="700" fill="#7dd3fc">PR-AUC</text>
  </g>

  <g stroke-linecap="round" fill="none" opacity=".8" filter="url(#soft)">
    <path d="M44 574c152-52 236 16 350-38 126-61 149-167 287-156 122 10 187 94 313 44 70-28 102-75 164-82" stroke="#38bdf8" stroke-width="10" stroke-opacity=".14"/>
  </g>
  <path d="M44 574c152-52 236 16 350-38 126-61 149-167 287-156 122 10 187 94 313 44 70-28 102-75 164-82" stroke="#0284c7" stroke-width="2.5" stroke-opacity=".46" fill="none"/>
</svg>
