<svg xmlns="http://www.w3.org/2000/svg" viewBox="0 0 1200 720" role="img" aria-labelledby="title description">
  <title id="title">Lorebound interactive-fiction concept cover</title>
  <desc id="description">A dark indigo story map with luminous paths, chapter cards, and the Lorebound wordmark.</desc>
  <defs>
    <linearGradient id="background" x1="0" y1="0" x2="1" y2="1">
      <stop offset="0" stop-color="#090d22"/>
      <stop offset="0.55" stop-color="#151044"/>
      <stop offset="1" stop-color="#251151"/>
    </linearGradient>
    <linearGradient id="path" x1="0" y1="0" x2="1" y2="0">
      <stop stop-color="#8b5cf6"/>
      <stop offset="1" stop-color="#5eead4"/>
    </linearGradient>
    <filter id="glow"><feGaussianBlur stdDeviation="8" result="blur"/><feMerge><feMergeNode in="blur"/><feMergeNode in="SourceGraphic"/></feMerge></filter>
  </defs>
  <rect width="1200" height="720" fill="url(#background)"/>
  <g opacity=".22" stroke="#a78bfa" fill="none"><path d="M0 92C236 24 381 201 612 128s314-12 588-98"/><path d="M0 632c176-72 312 36 519-35s366-69 681-7"/></g>
  <g fill="none" stroke="url(#path)" stroke-width="4" filter="url(#glow)"><path d="M202 467C379 441 393 263 594 284s173 165 375 82"/><path d="M594 284c37-100 189-128 286-69"/></g>
  <g fill="#d8b4fe" filter="url(#glow)"><circle cx="202" cy="467" r="10"/><circle cx="594" cy="284" r="12"/><circle cx="880" cy="215" r="10"/><circle cx="969" cy="366" r="10"/></g>
  <g fill="#171437" stroke="#8b5cf6" stroke-opacity=".7"><rect x="120" y="385" width="224" height="132" rx="16"/><rect x="491" y="205" width="206" height="145" rx="16"/><rect x="797" y="131" width="177" height="122" rx="16"/><rect x="874" y="303" width="194" height="128" rx="16"/></g>
  <g fill="#e9d5ff" font-family="Inter, Arial, sans-serif"><text x="145" y="425" font-size="16" opacity=".76">CHAPTER 01</text><text x="145" y="459" font-size="24" font-weight="700">A promise in ash</text><text x="516" y="246" font-size="16" opacity=".76">CHOICE REMEMBERED</text><text x="516" y="282" font-size="24" font-weight="700">Trust the envoy</text><text x="822" y="171" font-size="16" opacity=".76">MEMORY</text><text x="822" y="207" font-size="23" font-weight="700">The old oath</text><text x="899" y="343" font-size="16" opacity=".76">TURN</text><text x="899" y="379" font-size="23" font-weight="700">Write your path</text></g>
  <text x="120" y="120" fill="#fff" font-family="Georgia, serif" font-size="68" font-weight="700">Lorebound</text><text x="124" y="157" fill="#c4b5fd" font-family="Inter, Arial, sans-serif" font-size="20" letter-spacing="4">AUTHORED WORLDS · AI FREEDOM</text>
  <rect x="920" y="570" width="170" height="42" rx="21" fill="#312e81" stroke="#a78bfa"/><text x="1005" y="597" text-anchor="middle" fill="#ede9fe" font-family="Inter, Arial, sans-serif" font-size="16" font-weight="700">IN DEVELOPMENT</text>
</svg>
