<svg xmlns="http://www.w3.org/2000/svg" width="1200" height="630" viewBox="0 0 1200 630" role="img" aria-labelledby="title desc">
  <title id="title">Joao Paulo portfolio preview</title>
  <desc id="desc">Cold frosted portfolio preview with JP mark, case studies, and web development focus.</desc>
  <defs>
    <linearGradient id="bg" x1="0" y1="0" x2="1" y2="1">
      <stop offset="0" stop-color="#f8fafc"/>
      <stop offset=".55" stop-color="#eaf6fb"/>
      <stop offset="1" stop-color="#dbeafe"/>
    </linearGradient>
    <linearGradient id="mark" x1="0" y1="0" x2="1" y2="1">
      <stop offset="0" stop-color="#0891b2"/>
      <stop offset=".58" stop-color="#0ea5e9"/>
      <stop offset="1" stop-color="#2563eb"/>
    </linearGradient>
    <radialGradient id="wash" cx="78%" cy="26%" r="58%">
      <stop offset="0" stop-color="#38bdf8" stop-opacity=".22"/>
      <stop offset="1" stop-color="#38bdf8" stop-opacity="0"/>
    </radialGradient>
    <filter id="softShadow" x="-20%" y="-20%" width="140%" height="140%">
      <feDropShadow dx="0" dy="18" stdDeviation="24" flood-color="#0f172a" flood-opacity=".12"/>
    </filter>
  </defs>

  <rect width="1200" height="630" fill="url(#bg)"/>
  <rect width="1200" height="630" fill="url(#wash)"/>
  <g opacity=".38" stroke="#0891b2" stroke-width="1">
    <path d="M0 104H1200M0 188H1200M0 272H1200M0 356H1200M0 440H1200M0 524H1200"/>
    <path d="M116 0V630M232 0V630M348 0V630M464 0V630M580 0V630M696 0V630M812 0V630M928 0V630M1044 0V630"/>
  </g>

  <g transform="translate(90 96)" filter="url(#softShadow)">
    <rect width="126" height="126" rx="28" fill="#f8fafc" stroke="#94a3b8" stroke-opacity=".55"/>
    <text x="22" y="82" font-family="Plus Jakarta Sans, Inter, system-ui, sans-serif" font-size="58" font-weight="900" fill="url(#mark)" letter-spacing="-4">JP</text>
    <circle cx="101" cy="81" r="7" fill="#0891b2"/>
  </g>

  <text x="90" y="302" font-family="Plus Jakarta Sans, Inter, system-ui, sans-serif" font-size="68" font-weight="900" fill="#0f172a" letter-spacing="-2">Joao Paulo</text>
  <text x="90" y="382" font-family="Plus Jakarta Sans, Inter, system-ui, sans-serif" font-size="68" font-weight="900" fill="#0f172a" letter-spacing="-2">Goncalves Santos</text>
  <text x="92" y="444" font-family="Plus Jakarta Sans, Inter, system-ui, sans-serif" font-size="30" font-weight="700" fill="#0e7490">Software Developer - Astro, Svelte, Python, Django</text>

  <g font-family="Plus Jakarta Sans, Inter, system-ui, sans-serif" font-size="15" font-weight="800" letter-spacing="1.5">
    <rect x="92" y="486" width="132" height="38" rx="8" fill="#cffafe" stroke="#67e8f9" stroke-opacity=".65"/>
    <text x="158" y="511" text-anchor="middle" fill="#155e75">CASE STUDIES</text>
    <rect x="240" y="486" width="108" height="38" rx="8" fill="#e0f2fe" stroke="#7dd3fc" stroke-opacity=".7"/>
    <text x="294" y="511" text-anchor="middle" fill="#075985">THREE.JS</text>
    <rect x="364" y="486" width="114" height="38" rx="8" fill="#dbeafe" stroke="#93c5fd" stroke-opacity=".7"/>
    <text x="421" y="511" text-anchor="middle" fill="#1e3a8a">PRODUCT</text>
  </g>

  <g transform="translate(740 136)" opacity=".88">
    <path d="M88 52c64-41 139-14 186 32 53 52 123 58 158 121 43 77-20 168-93 195-80 30-139-32-221-11-63 16-111 58-160 24-61-42-36-145 8-202 44-58-11-118 122-159Z" fill="#f8fafc" fill-opacity=".64" stroke="#0891b2" stroke-opacity=".4" stroke-width="2"/>
    <path d="M116 112c44-26 94-8 127 24 38 36 87 38 113 83 31 55-15 119-67 138-58 21-99-24-157-9-45 12-80 42-115 18-43-30-24-104 7-144 31-41-6-83 92-110Z" fill="none" stroke="#0ea5e9" stroke-opacity=".45" stroke-width="2"/>
    <path d="M176 181c30-10 59 8 82 29 27 24 67 21 78 57 12 38-25 71-64 75-38 4-59-25-94-13-32 11-62 24-82 4-26-27 1-66 22-87 23-23 17-51 58-65Z" fill="#38bdf8" fill-opacity=".13" stroke="#2563eb" stroke-opacity=".38" stroke-width="2"/>
  </g>

  <text x="1110" y="574" font-family="Plus Jakarta Sans, Inter, system-ui, sans-serif" font-size="24" font-weight="800" fill="#475569" text-anchor="end">jpclow.dev</text>
</svg>
