<svg xmlns="http://www.w3.org/2000/svg" width="256" height="256" viewBox="0 0 256 256"><rect width="100%" height="100%" fill="#1e293b"/><path fill="#ffffff" d="M107.2 81.22v59.64q0 7.81-1.92 14.08-1.92 6.28-5.72 10.69-3.81 4.42-9.51 6.79-5.69 2.36-13.25 2.36-3.45 0-6.78-.41-3.33-.42-6.98-1.31.2-2.56.45-5.12.26-2.56.45-5.12.19-1.41 1.12-2.28.93-.86 2.66-.86 1.08 0 2.84.45t4.45.45q3.65 0 6.47-1.06 2.81-1.06 4.7-3.36t2.85-5.98.96-8.93V81.22zm36.93 46.52H157q4.73 0 8.25-1.18t5.86-3.39q2.33-2.21 3.49-5.38 1.15-3.17 1.15-7.07 0-3.71-1.15-6.72-1.16-3.01-3.46-5.12t-5.82-3.23-8.32-1.12h-12.87zm-17.21-46.52H157q9.28 0 16.06 2.17 6.78 2.18 11.2 6.08 4.42 3.91 6.56 9.35t2.14 11.9q0 6.72-2.24 12.32t-6.72 9.63-11.23 6.27-15.77 2.24h-12.87v32.58h-17.21z"/></svg>